<svg style="fill : #aaa" xmlns="http://www.w3.org/2000/svg" width="32" height="32" viewBox="0 0 8.467 8.467"><path d="m 1.8536335,289.05822 c -0.4351618,0 -0.7953002,0.35962 -0.7953002,0.79478 v 2.41846 c -0.0975565,0.028 -0.18844655,0.0708 -0.26768397,0.13023 -0.14754728,0.11066 -0.26148162,0.28993 -0.26148268,0.49454 0,0.2046 0.11393435,0.3813 0.26148268,0.49196 0.0829239,0.0622 0.17884167,0.10554 0.28163647,0.13332 0.086748,0.72542 0.5814179,1.32989 1.2655558,1.64745 l -0.4573363,0.91467 c -0.1588636,0.31524 0.3139757,0.55347 0.4728393,0.23823 l 0.4904094,-0.98185 c 0.1911943,0.0439 0.3899877,0.0698 0.5953125,0.0698 h 1.5880168 c 0.2052426,0 0.4041875,-0.0259 0.5953125,-0.0698 l 0.4909262,0.98185 c 0.1540985,0.33017 0.6471854,0.0825 0.4743894,-0.23823 l -0.4573362,-0.91519 c 0.6832152,-0.31766 1.1766317,-0.92174 1.2634886,-1.64641 0.1035796,-0.0277 0.2002308,-0.0712 0.2837037,-0.13384 0.1475483,-0.11066 0.2599325,-0.28736 0.2599325,-0.49196 0,-0.20461 -0.1123852,-0.38388 -0.2599325,-0.49454 -0.1475473,-0.11067 -0.3334695,-0.16795 -0.5333008,-0.16795 H 1.5874999 V 289.853 c 0,-0.15115 0.114979,-0.26561 0.2661336,-0.26561 h 0.5291666 c 0.1152216,0 0.2068333,0.0668 0.2444295,0.16536 -0.4357378,0.13107 -0.7580931,0.53271 -0.7580931,1.00924 2e-7,0.0666 0.0061,0.13297 0.018603,0.19844 0.023826,0.12475 0.1329264,0.21498 0.259933,0.21497 h 1.559595 c 0.1270065,10e-6 0.2361066,-0.0902 0.2599325,-0.21497 0.012507,-0.0655 0.018606,-0.1318 0.018603,-0.19844 0,-0.50001 -0.3535669,-0.92085 -0.8221721,-1.02939 -0.05899,-0.37881 -0.3868105,-0.67438 -0.7808309,-0.67438 z m 1.0738363,1.17461 c 0.2498116,0 0.4240826,0.18314 0.4816242,0.41341 H 2.4458456 c 0.057542,-0.23027 0.2318126,-0.41341 0.4816242,-0.41341 z m -1.6035197,2.53059 h 5.8203166 c 0.093327,0 0.1712275,0.0292 0.2149739,0.062 0.043746,0.0328 0.048576,0.0555 0.048576,0.0708 0,0.0153 -0.00483,0.0354 -0.048576,0.0682 -0.043745,0.0328 -0.1216437,0.0625 -0.2149739,0.0625 H 1.3239501 c -0.09333,0 -0.1727788,-0.0297 -0.2165242,-0.0625 -0.043745,-0.0328 -0.049093,-0.0529 -0.049093,-0.0682 0,-0.0153 0.00535,-0.038 0.049093,-0.0708 0.043746,-0.0328 0.1231972,-0.062 0.2165242,-0.062 z m 0.3886067,0.79272 H 6.753593 c -0.1603605,0.7256 -0.8017754,1.32446 -1.7265097,1.32446 H 4.2333334 3.4390665 c -0.9248187,0 -1.5662391,-0.59877 -1.7265097,-1.32446 z" color="#000" font-family="sans-serif" font-weight="400" overflow="visible" paint-order="stroke fill markers" transform="translate(0 -288.533)" white-space="normal" style="line-height:normal;font-variant-ligatures:normal;font-variant-position:normal;font-variant-caps:normal;font-variant-numeric:normal;font-variant-alternates:normal;font-feature-settings:normal;text-indent:0;text-align:start;text-decoration-line:none;text-decoration-style:solid;text-decoration-color:#000;text-transform:none;text-orientation:mixed;shape-padding:0;isolation:auto;mix-blend-mode:normal"/></svg>