<svg fill="#aaa" xmlns="http://www.w3.org/2000/svg" enable-background="new 0 0 80 80" viewBox="0 0 80 80"><rect width="3.851" height="4" x="46.518" y="59.887"/><rect width="3.851" height="4" x="29.632" y="59.887"/><path d="M61.9946289,53.3867188l-3.9960938,0.1660156c0.0185547,0.4487305-0.1088867,0.5751953-0.1567383,0.6230469
	c-0.1409302,0.1400757-0.3927002,0.239563-0.666748,0.3143311l-3.6618652-7.8929443
	c-0.9008789-2.375-3.1962891-3.9643555-5.7431641-3.9643555H32.2246094c-2.5463867,0-4.8417969,1.5893555-5.7426758,3.9643555
	l-3.6657715,7.9013672c-0.2653198-0.071167-0.5112305-0.1740112-0.6599121-0.3198242
	c-0.0532227-0.0522461-0.1782227-0.1748047-0.159668-0.6259766l-3.9960938-0.1660156
	c-0.0771484,1.8417969,0.6948242,3.0004883,1.355957,3.6484375c0.1116333,0.1094971,0.2335205,0.197937,0.3522949,0.2930298
	c-0.0012207,0.0336304-0.0100098,0.0651245-0.0100098,0.0990601v8.9194336c0,1.5463867,1.2578125,2.8041992,2.8041992,2.8041992
	h1.4360352v2.3500977C23.9389648,73.4301758,25.5087891,75,27.4379883,75h4.605957
	c1.9291992,0,3.4985352-1.5698242,3.4985352-3.4990234v-2.3500977h8.9150391v2.3500977
	C44.4575195,73.4301758,46.0268555,75,47.9560547,75h4.605957c1.9291992,0,3.4990234-1.5698242,3.4990234-3.4990234v-2.3500977
	h1.4360352c1.5463867,0,2.8041992-1.2578125,2.8041992-2.8041992v-8.9194336c0-0.0352173-0.0090942-0.0679321-0.010376-0.1028442
	c0.1171265-0.0940552,0.2375488-0.1811523,0.3477783-0.2892456C61.2998047,56.387207,62.0717773,55.2285156,61.9946289,53.3867188z
	 M30.144043,48.2089844l0.0664062-0.1625977c0.3056641-0.8452148,1.1147461-1.4135742,2.0141602-1.4135742h15.5454102
	c0.8994141,0,1.7089844,0.5683594,2.0146484,1.4135742l3.0419922,6.5761719H27.168457L30.144043,48.2089844z M31.5424805,71
	h-3.6035156v-1.8491211h3.6035156V71z M52.0610352,71h-3.6035156v-1.8491211h3.6035156V71z M56.3012695,65.1508789h-0.2402344
	H44.4575195h-8.9150391H23.9389648h-0.2402344v-6.5248413c0.0436401,0.0007324,0.0979004,0.0033569,0.1362305,0.0033569
	c0.1257324,0,0.2108154-0.003418,0.2705078-0.0063477h31.7841797c0.0596924,0.0029297,0.1447754,0.0063477,0.2705078,0.0063477
	c0.0397339,0,0.0957031-0.0026855,0.1411133-0.003479V65.1508789z"/><path d="M5,22.7807617V75h11V37h48v38h11V22.7802734L39.9970703,4.75L5,22.7807617z M64,33H16v-0.6875
	C16,31.0375977,17.0375977,30,18.3125,30h43.375C62.9624023,30,64,31.0375977,64,32.3125V33z M71,71h-3V32.3125
	C68,28.831543,65.168457,26,61.6875,26h-43.375C14.831543,26,12,28.831543,12,32.3125V71H9V25.2192383L39.9970703,9.25
	L71,25.2197266V71z"/></svg>