<svg xmlns="http://www.w3.org/2000/svg" enable-background="new 0 0 66 66" viewBox="0 0 66 66"><path d="M35.6 47.5h7.8c.6 0 1-.4 1-1V34.8c0-.6-.4-1-1-1h-7.8c-.6 0-1 .4-1 1v11.7C34.6 47.1 35 47.5 35.6 47.5zM36.6 35.8h5.8v9.7h-5.8V35.8zM48.4 47.5h7.8c.6 0 1-.4 1-1V34.8c0-.6-.4-1-1-1h-7.8c-.6 0-1 .4-1 1v11.7C47.4 47.1 47.8 47.5 48.4 47.5zM49.4 35.8h5.8v9.7h-5.8V35.8z"/><path d="M64.6,28.2L49.3,12.9c-0.2-0.2-0.4-0.3-0.7-0.3H17.4c-0.3,0-0.6,0.1-0.7,0.3L1.3,28.3C1,28.6,0.9,29,1.1,29.4
		C1.2,29.8,1.6,30,2,30h2v22.3c0,0.6,0.4,1,1,1c12.2,0,44,0,57,0c0.6,0,1-0.4,1-1V30h1c0,0,0,0,0,0C65,30,65.4,28.8,64.6,28.2z
		 M56.4,22.9H28l-3.1-3.1h28.4L56.4,22.9z M33.2,28l-1.3-1.3L30,24.9h28.4l3.1,3.1H33.2z M51.3,17.8H22.9l-3.1-3.1h28.4L51.3,17.8z
		 M13.9,51.4v-6.9c0-1.9,1.6-3.5,3.5-3.5s3.5,1.6,3.5,3.5v6.9H13.9z M28.8,29v22.3h-5.9v-6.9c0-3-2.4-5.5-5.5-5.5s-5.5,2.4-5.5,5.5
		v6.9H6V29c0-0.6-0.4-1-1-1H4.4l13-13c2.2,2.2,8.1,8.1,13,13h-0.6C29.2,28,28.8,28.5,28.8,29z M61,51.4H30.8V30h2c0,0,0,0,0,0H61
		V51.4z"/><path d="M17.4,22.3c-2.9,0-5.2,2.3-5.2,5.2c0,2.9,2.3,5.2,5.2,5.2s5.2-2.3,5.2-5.2C22.6,24.7,20.2,22.3,17.4,22.3z M17.4,30.7
		c-1.8,0-3.2-1.4-3.2-3.2c0-1.8,1.4-3.2,3.2-3.2s3.2,1.4,3.2,3.2C20.6,29.3,19.1,30.7,17.4,30.7z"/></svg>