<svg xmlns="http://www.w3.org/2000/svg" width="32" height="32" enable-background="new 0 0 32 32" viewBox="0 0 32 32"><path fill="#263238" d="M8.737,30.128c-0.017,0-0.034-0.001-0.051-0.003l-5.766-0.576c-0.007,0-0.014-0.001-0.021-0.002
		l-1.285-0.129c-0.019-0.001-0.036-0.004-0.054-0.008l0,0H1.561c-0.105-0.022-0.197-0.078-0.267-0.153c0-0.001,0-0.001,0-0.001
		s0,0-0.001-0.001l0,0c0,0,0,0-0.001-0.001l0,0c0,0,0,0-0.001-0.001c0,0,0,0,0-0.001l0,0c-0.033-0.037-0.061-0.079-0.082-0.125l0,0
		c0-0.001,0-0.001,0-0.001v-0.001H1.208c-0.032-0.073-0.048-0.154-0.042-0.239l0.377-5.793c0.008-0.122,0.061-0.236,0.146-0.322
		l10.463-10.397c-0.524-2.655,0.095-5.391,1.717-7.545c0.168-0.223,0.481-0.263,0.7-0.099c0.221,0.166,0.265,0.479,0.099,0.7
		c-1.501,1.993-2.041,4.543-1.482,6.995c0.038,0.168-0.013,0.345-0.135,0.466L2.528,23.347l-0.333,5.125l0.569,0.057l11.274-11.274
		c0.095-0.095,0.146-0.221,0.146-0.354c0-0.133-0.052-0.258-0.146-0.353c-0.189-0.189-0.518-0.189-0.707,0l-9.069,9.068
		c-0.195,0.195-0.512,0.195-0.707,0s-0.195-0.512,0-0.707l9.069-9.068c0.584-0.584,1.537-0.584,2.121,0
		c0.283,0.282,0.439,0.658,0.439,1.06c0,0.4-0.156,0.778-0.439,1.062L4.05,28.657l4.244,0.424l0.299-2.69
		c0.013-0.112,0.063-0.218,0.144-0.298l2.475-2.476c0.094-0.094,0.221-0.146,0.354-0.146h1.914l4.766-4.766
		c0.136-0.135,0.332-0.181,0.513-0.12c3.084,1.032,6.426,0.254,8.718-2.038c3.313-3.314,3.313-8.708,0-12.021
		c-2.977-2.977-7.754-3.316-11.109-0.792c-0.222,0.167-0.535,0.122-0.7-0.099c-0.166-0.221-0.122-0.534,0.099-0.7
		c3.755-2.823,9.092-2.442,12.418,0.884c3.704,3.704,3.704,9.73,0,13.436c-2.488,2.488-6.079,3.387-9.445,2.373l-4.697,4.697
		c-0.094,0.094-0.221,0.146-0.354,0.146h-1.914l-2.204,2.205l-0.334,3.008C9.205,29.938,8.988,30.128,8.737,30.128z M24.292,11.205
		c-0.896,0-1.792-0.341-2.475-1.022l0,0c-0.661-0.661-1.025-1.54-1.025-2.475c0-0.936,0.364-1.814,1.025-2.476
		c1.365-1.361,3.585-1.363,4.95,0c1.363,1.365,1.363,3.585,0,4.95C26.085,10.864,25.188,11.205,24.292,11.205z M22.524,9.476
		c0.975,0.975,2.562,0.974,3.536,0c0.974-0.975,0.974-2.562,0-3.536c-0.977-0.976-2.563-0.975-3.536,0
		C21.55,6.914,21.55,8.501,22.524,9.476L22.524,9.476z"/><path fill="#263238" d="M2.95,29.55c-0.128,0-0.256-0.049-0.354-0.146c-0.195-0.195-0.195-0.512,0-0.707l11.442-11.442
		c0.095-0.095,0.146-0.221,0.146-0.354c0-0.133-0.052-0.258-0.146-0.353c-0.195-0.195-0.512-0.195-0.707,0l-9.069,9.068
		c-0.195,0.195-0.512,0.195-0.707,0s-0.195-0.512,0-0.707l9.069-9.068c0.584-0.584,1.537-0.584,2.121,0
		c0.283,0.282,0.439,0.658,0.439,1.06c0,0.4-0.156,0.778-0.439,1.062L3.304,29.403C3.206,29.501,3.078,29.55,2.95,29.55z"/><circle cx="14.5" cy="1.5" r=".5" fill="#263238"/><circle cx="30.5" cy="17.5" r=".5" fill="#263238"/><path fill="#263238" d="M21.5 22.5c-.566 0-1.138-.04-1.696-.119-.273-.039-.464-.292-.425-.565.039-.272.289-.456.565-.425 3.165.446 6.44-.525 8.841-2.649.205-.183.52-.165.706.044.183.207.163.522-.044.706C27.253 21.432 24.431 22.5 21.5 22.5zM10.113 12.627c-.245 0-.459-.181-.494-.43C9.54 11.639 9.5 11.067 9.5 10.5c0-3.012 1.12-5.892 3.153-8.107.188-.203.505-.216.706-.03.203.187.217.503.03.706C11.526 5.1 10.5 7.739 10.5 10.5c0 .521.037 1.044.109 1.557.039.273-.151.526-.425.565C10.16 12.625 10.137 12.627 10.113 12.627z"/></svg>