<svg xmlns="http://www.w3.org/2000/svg" viewBox="0 0 64 64"><path d="M60.9,7H3.1A1.1,1.1,0,0,0,2,8.1V35.9A1.1,1.1,0,0,0,3.1,37H32.05c0,.33,0,.66,0,1a10.61,10.61,0,0,0,.17,1.77A10,10,0,1,0,42,57a9.9,9.9,0,0,0,6,2,10,10,0,0,0,3.83-19.23A10.61,10.61,0,0,0,52,38c0-.34,0-.67,0-1H60.9A1.1,1.1,0,0,0,62,35.9V8.1A1.1,1.1,0,0,0,60.9,7ZM28,49a8,8,0,0,1,12.51-6.6A9.81,9.81,0,0,0,39.34,44a6,6,0,1,0,0,10,9.81,9.81,0,0,0,1.17,1.62A8,8,0,0,1,28,49ZM38,38a4,4,0,0,1,8,0,4.12,4.12,0,0,1-.22,1.26A10,10,0,0,0,42,41a10,10,0,0,0-3.78-1.75A3.85,3.85,0,0,1,38,38Zm.5,14.11A3.94,3.94,0,0,1,36,53a4,4,0,0,1,0-8,3.94,3.94,0,0,1,2.5.89,9.92,9.92,0,0,0,0,6.22ZM56,49a8,8,0,1,1-8-8A8,8,0,0,1,56,49ZM48,39h-.09A6.64,6.64,0,0,0,48,38a6,6,0,0,0-12,0,6.64,6.64,0,0,0,.09,1H36a9.87,9.87,0,0,0-1.9.19,8,8,0,1,1,15.8,0A9.87,9.87,0,0,0,48,39ZM42,28a10,10,0,0,0-7.13,3h-23A5,5,0,0,0,8,27.1V16.9A5,5,0,0,0,11.9,13H52.1A5,5,0,0,0,56,16.9V27.1A5,5,0,0,0,52.1,31h-3A10,10,0,0,0,42,28Zm18,7H51.54a10.24,10.24,0,0,0-.89-2H54V32a3,3,0,0,1,3-3h1V15H57a3,3,0,0,1-3-3V11H10v1a3,3,0,0,1-3,3H6V29H7a3,3,0,0,1,3,3v1H33.35a10.24,10.24,0,0,0-.89,2H4V9H60Z"/><path d="M32 18c1.08 0 2 .69 2 1.5h2a3.63 3.63 0 0 0-3-3.38V15H31v1.12a3.63 3.63 0 0 0-3 3.38A3.78 3.78 0 0 0 32 23c1.08 0 2 .69 2 1.5S33.08 26 32 26s-2-.69-2-1.5H28a3.63 3.63 0 0 0 3 3.38V29h2V27.88a3.63 3.63 0 0 0 3-3.38A3.78 3.78 0 0 0 32 21c-1.08 0-2-.69-2-1.5S30.92 18 32 18zM18 19a3 3 0 1 0 3 3A3 3 0 0 0 18 19zm0 4a1 1 0 1 1 1-1A1 1 0 0 1 18 23zM46 19a3 3 0 1 0 3 3A3 3 0 0 0 46 19zm0 4a1 1 0 1 1 1-1A1 1 0 0 1 46 23zM43.41 38A1 1 0 0 0 42 36.59L40.59 38a1 1 0 0 0 0 1.41 1 1 0 0 0 .7.3 1 1 0 0 0 .71-.3zM37 48H35a1 1 0 0 0 0 2h2a1 1 0 0 0 0-2zM42 49a6 6 0 1 0 6-6A6 6 0 0 0 42 49zm10 0a4 4 0 1 1-4-4A4 4 0 0 1 52 49z"/><path d="M46.59,47.59a1,1,0,0,0,0,1.41L48,50.41a1,1,0,0,0,.71.3,1,1,0,0,0,.7-.3,1,1,0,0,0,0-1.41L48,47.59A1,1,0,0,0,46.59,47.59Z"/></svg>