<svg xmlns="http://www.w3.org/2000/svg" enable-background="new 0 0 70 70" viewBox="0 0 70 70"><path d="M30.7,50.4c3.2,0,6.4-0.8,9.1-2.2l9.1,9.1c1.1,1.1,2.7,1.7,4.2,1.7s3-0.6,4.2-1.7c1.1-1.1,1.7-2.6,1.7-4.2
	c0-1.6-0.6-3.1-1.7-4.2l-9.1-9.1c3.9-7.4,2.7-16.8-3.5-23.1c-7.7-7.7-20.2-7.7-27.9,0C13,20.5,11,25.4,11,30.7
	c0,5.3,2,10.2,5.8,13.9C20.5,48.4,25.4,50.4,30.7,50.4z M55.9,50.3c0.7,0.7,1.1,1.7,1.1,2.8c0,1-0.4,2-1.1,2.8c-1.5,1.5-4,1.5-5.5,0
	l-8.7-8.7c1.1-0.7,2.1-1.5,3-2.5c0.9-0.9,1.8-2,2.5-3L55.9,50.3z M18.2,18.2c3.5-3.5,8-5.2,12.5-5.2c4.5,0,9.1,1.7,12.5,5.2
	c6.9,6.9,6.9,18.2,0,25.1c-3.3,3.3-7.8,5.2-12.5,5.2c-4.7,0-9.2-1.8-12.5-5.2c-3.3-3.3-5.2-7.8-5.2-12.5C13,26,14.8,21.5,18.2,18.2z
	"/><path d="M19,31.8h1.9v10.5c0,0.6,0.4,1,1,1h17.6c0.6,0,1-0.4,1-1V31.8h1.9c0.4,0,0.8-0.2,0.9-0.6c0.2-0.4,0.1-0.8-0.2-1.1L31.4,18.4
	c-0.4-0.4-1-0.4-1.4,0L18.3,30.1c-0.3,0.3-0.4,0.7-0.2,1.1C18.2,31.6,18.6,31.8,19,31.8z M38.5,41.3H22.9v-9.5h15.6V41.3z
	 M30.7,20.5l9.3,9.3h-0.5c0,0,0,0,0,0s0,0,0,0H22c0,0,0,0,0,0s0,0,0,0h-0.5L30.7,20.5z"/></svg>