<svg xmlns="http://www.w3.org/2000/svg" enable-background="new 0 0 70 70" viewBox="0 0 70 70"><path d="M28.6 16c-.6 0-1 .4-1 1v2c0 .6.4 1 1 1s1-.4 1-1v-2C29.6 16.4 29.1 16 28.6 16zM35.7 20c.6 0 1-.4 1-1v-2c0-.6-.4-1-1-1s-1 .4-1 1v2C34.7 19.6 35.1 20 35.7 20zM21.5 16c-.6 0-1 .4-1 1v2c0 .6.4 1 1 1s1-.4 1-1v-2C22.5 16.4 22 16 21.5 16zM42.7 20c.6 0 1-.4 1-1v-2c0-.6-.4-1-1-1s-1 .4-1 1v2C41.7 19.6 42.2 20 42.7 20zM28.6 22.4c-.6 0-1 .4-1 1v2c0 .6.4 1 1 1s1-.4 1-1v-2C29.6 22.8 29.1 22.4 28.6 22.4zM21.5 22.4c-.6 0-1 .4-1 1v2c0 .6.4 1 1 1s1-.4 1-1v-2C22.5 22.8 22 22.4 21.5 22.4zM28.6 28.8c-.6 0-1 .4-1 1v2c0 .6.4 1 1 1s1-.4 1-1v-2C29.6 29.2 29.1 28.8 28.6 28.8zM21.5 28.8c-.6 0-1 .4-1 1v2c0 .6.4 1 1 1s1-.4 1-1v-2C22.5 29.2 22 28.8 21.5 28.8zM28.6 35.1c-.6 0-1 .4-1 1v2c0 .6.4 1 1 1s1-.4 1-1v-2C29.6 35.6 29.1 35.1 28.6 35.1zM21.5 35.1c-.6 0-1 .4-1 1v2c0 .6.4 1 1 1s1-.4 1-1v-2C22.5 35.6 22 35.1 21.5 35.1zM21.5 41.5c-.6 0-1 .4-1 1v2c0 .6.4 1 1 1s1-.4 1-1v-2C22.5 41.9 22 41.5 21.5 41.5zM21.5 47.9c-.6 0-1 .4-1 1v2c0 .6.4 1 1 1s1-.4 1-1v-2C22.5 48.3 22 47.9 21.5 47.9zM42.7 47.9c-.6 0-1 .4-1 1v2c0 .6.4 1 1 1s1-.4 1-1v-2C43.7 48.3 43.3 47.9 42.7 47.9z"/><path d="M53.2,37.6c0.5-1.2,0.8-2.5,0.8-3.9c0-3.7-2.1-7-5.3-8.6V12c0-0.6-0.4-1-1-1H16.5c-0.6,0-1,0.4-1,1v45H12c-0.6,0-1,0.4-1,1
	s0.4,1,1,1h4.5h11.1h8.9h11.2h4.5c0.6,0,1-0.4,1-1s-0.4-1-1-1h-3.5V43.1l5,5c0.2,0.2,0.5,0.3,0.7,0.3s0.5-0.1,0.7-0.3l3.5-3.5
	c0.2-0.2,0.3-0.4,0.3-0.7s-0.1-0.5-0.3-0.7L53.2,37.6z M35.6,57h-6.9v-7.4c0-1.9,1.6-3.5,3.5-3.5c1.9,0,3.5,1.6,3.5,3.5V57z
	 M46.7,57h-9.2v-7.4c0-3-2.5-5.5-5.5-5.5s-5.5,2.5-5.5,5.5V57h-9.1V13h29.3v11.4C46,24.2,45.2,24,44.3,24c-5.3,0-9.7,4.3-9.7,9.7
	s4.3,9.7,9.7,9.7c0.8,0,1.6-0.1,2.4-0.3V57z M44.3,41.4c-4.2,0-7.7-3.4-7.7-7.7s3.4-7.7,7.7-7.7c4.2,0,7.7,3.4,7.7,7.7
	S48.6,41.4,44.3,41.4z M54.5,46L50,41.5c0.8-0.6,1.5-1.3,2.1-2.1l4.4,4.4L54.5,46z"/></svg>