<svg xmlns="http://www.w3.org/2000/svg" enable-background="new 0 0 80 80" viewBox="0 0 80 80"><path d="M75,40.309082L61.690918,27h-6.2194824l-3.2897949-3.194397V9.2729492c0-1.1044922-0.8955078-2-2-2h-6.8178711
	c-1.1044922,0-2,0.8955078-2,2v4.0310669l-7.9707031-7.7390747c-0.7753906-0.7529297-2.0107422-0.7529297-2.7861328,0
	l-25,24.2700195c-0.5844727,0.5673828-0.7661133,1.4321289-0.4604492,2.1865234
	C5.4526367,32.7763672,6.1855469,33.2700195,7,33.2700195h6.3398438V57c0,1.1044922,0.8955078,2,2,2h9.840332h9.40625v16H75
	V40.309082z M34.5864258,55h-7.40625V41.5800781h7.40625V55z M34.5864258,37.5800781h-9.40625c-1.1044922,0-2,0.8955078-2,2V55
	h-5.840332V31.2700195c0-1.1044922-0.8955078-2-2-2h-3.4082031L32,9.7875977l9.9667969,9.6772461
	c0.0579224,0.0561523,0.1229858,0.0991821,0.1856079,0.1469727c0.0357056,0.0274658,0.0681152,0.0585938,0.1057129,0.0836182
	c0.0670166,0.0443726,0.1380005,0.0778809,0.2086792,0.1133423c0.046814,0.0236816,0.0911865,0.0509033,0.1400146,0.0709839
	c0.0685425,0.0278931,0.1394043,0.0452271,0.210022,0.0651855c0.0560913,0.0160522,0.1101685,0.0360107,0.1681519,0.0471191
	c0.0731201,0.013916,0.1470337,0.0166016,0.2210693,0.0222778c0.0529175,0.0042114,0.1036987,0.0159302,0.1577148,0.0159302
	c0.0058594,0,0.0112915-0.0016479,0.0171509-0.001709c0.0563965-0.0006104,0.1119995-0.0116577,0.1682129-0.0169678
	c0.6273804-0.0585938,1.1702881-0.3991699,1.4942017-0.9021606c0.0067749-0.0105591,0.0111694-0.0220337,0.0177612-0.0327148
	c0.0620728-0.1004028,0.1167603-0.2052002,0.1605225-0.3163452c0.0054321-0.0137329,0.0079346-0.0280762,0.0130005-0.0418701
	c0.0396118-0.1074829,0.0725708-0.2177124,0.0933228-0.3330078c0.0016479-0.0093384,0.0013428-0.0187988,0.0028687-0.0281982
	c0.0177002-0.1069946,0.032959-0.2150269,0.032959-0.3270264v-6.7573242h2.8178711v13.378418
	c0,0.0021973,0.0006714,0.0042725,0.0006714,0.0064697c0.001709,0.4291992,0.1463013,0.8532715,0.4215088,1.2093506
	c0.0553589,0.0716553,0.1101074,0.1438599,0.1744995,0.2073364c0.0032959,0.0032349,0.0054321,0.0072021,0.0087891,0.010437
	L49.7294922,27H34.5864258V37.5800781z M71,71H38.5864258V57.0338745c0.0001831-0.0115356,0.003418-0.0222778,0.003418-0.0338745
	s-0.0032349-0.0223389-0.003418-0.0338745V39.6139526c0.0001831-0.0115356,0.003418-0.0222778,0.003418-0.0338745
	s-0.0032349-0.0223389-0.003418-0.0338745V31h21.4472656L71,41.9663086V71z"/><path d="M59.0834961,41.2436523c-3.8720703-3.8730469-10.1748047-3.8730469-14.046875,0
	c-1.8759766,1.8759766-2.9091797,4.3701172-2.9091797,7.0229492c-0.0004883,2.6533203,1.0327148,5.1479492,2.9091797,7.0234375
	c1.9360352,1.9365234,4.4799805,2.9047852,7.0234375,2.9047852c1.9074097,0,3.8150024-0.5446167,5.4663696-1.633667
	l6.8309937,6.8314209c0.3901367,0.390625,0.9023438,0.5859375,1.4140625,0.5859375s1.0234375-0.1953125,1.4140625-0.5859375
	c0.78125-0.7807617,0.78125-2.0473633,0-2.828125l-6.8309326-6.8313599
	C62.8959961,49.8797607,62.47229,44.632019,59.0834961,41.2436523z M56.2553711,52.4619141
	c-2.3129883,2.3120117-6.0766602,2.3134766-8.390625-0.0004883c-1.1206055-1.1201172-1.7373047-2.6098633-1.7373047-4.1943359
	c0-1.5849609,0.6171875-3.074707,1.7373047-4.1953125c1.1567383-1.15625,2.6762695-1.7348633,4.1953125-1.7348633
	s3.0385742,0.5786133,4.1953125,1.7348633C58.5683594,46.3852539,58.5683594,50.1484375,56.2553711,52.4619141z"/></svg>