<svg xmlns="http://www.w3.org/2000/svg" width="32" height="32" viewBox="0 0 32 32"><g fill="none" fill-rule="evenodd"><path fill="#aaa" fill-rule="nonzero" d="M7,5 L7,25 L25,25 L25,5 L7,5 Z M7,3 L25,3 C26.1045695,3 27,3.8954305 27,5 L27,25 C27,26.1045695 26.1045695,27 25,27 L7,27 C5.8954305,27 5,26.1045695 5,25 L5,5 C5,3.8954305 5.8954305,3 7,3 Z"/><path fill="#aaa" fill-rule="nonzero" d="M21.0041356,5.93538253 C21.0041356,5.38309778 21.4518509,4.93538253 22.0041356,4.93538253 C22.5564204,4.93538253 23.0041356,5.38309778 23.0041356,5.93538253 L23.0041356,7.98762895 C23.0041356,8.5399137 22.5564204,8.98762895 22.0041356,8.98762895 C21.4518509,8.98762895 21.0041356,8.5399137 21.0041356,7.98762895 L21.0041356,5.93538253 Z" transform="rotate(-90 22.004 6.962)"/><path fill="#aaa" fill-rule="nonzero" d="M18.0097808 8C17.4574961 8 17.0097808 7.55228475 17.0097808 7 17.0097808 6.44771525 17.4574961 6 18.0097808 6 18.5620656 6 19.0097808 6.44771525 19.0097808 7 19.0097808 7.55228475 18.5620656 8 18.0097808 8zM15.0214324 8C14.4691477 8 14.0214324 7.55228475 14.0214324 7 14.0214324 6.44771525 14.4691477 6 15.0214324 6 15.5737172 6 16.0214324 6.44771525 16.0214324 7 16.0214324 7.55228475 15.5737172 8 15.0214324 8zM8.00521466 25.9913893C8.00521466 25.4391045 8.45292991 24.9913893 9.00521466 24.9913893 9.55749941 24.9913893 10.0052147 25.4391045 10.0052147 25.9913893L10 27.9967884C10 28.5490732 9.55228475 28.9967884 9 28.9967884 8.44771525 28.9967884 8 28.5490732 8 27.9967884L8.00521466 25.9913893zM22.0041356 25.9987842C22.0041356 25.4464995 22.4518509 24.9987842 23.0041356 24.9987842 23.5564204 24.9987842 24.0041356 25.4464995 24.0041356 25.9987842L24.0041356 27.9967884C24.0041356 28.5490732 23.5564204 28.9967884 23.0041356 28.9967884 22.4518509 28.9967884 22.0041356 28.5490732 22.0041356 27.9967884L22.0041356 25.9987842zM16 24C12.6862915 24 10 21.3137085 10 18 10 14.6862915 12.6862915 12 16 12 19.3137085 12 22 14.6862915 22 18 22 21.3137085 19.3137085 24 16 24zM16 22C18.209139 22 20 20.209139 20 18 20 15.790861 18.209139 14 16 14 13.790861 14 12 15.790861 12 18 12 20.209139 13.790861 22 16 22z"/><path fill="#aaa" fill-rule="nonzero" d="M16,15 C16.5522847,15 17,15.4477153 17,16 C17,16.5522847 16.5522847,17 16,17 C15.4477153,17 15,17.4477153 15,18 C15,18.5522847 14.5522847,19 14,19 C13.4477153,19 13,18.5522847 13,18 C13,16.3431458 14.3431458,15 16,15 Z"/><polygon fill="#aaa" fill-rule="nonzero" points="6 11.02 6 9.02 26 9.02 26 11.02"/></g></svg>